<svg xmlns="http://www.w3.org/2000/svg" viewBox="0 0 1024 1024" width="32" height="32" style="display:block;">
<path d="M 509.36 974.14 C508.31,979.76 507.34,979.41 506.07,972.96 C504.86,966.81 505.22,963.17 506.47,968.87 C506.92,970.93 507.59,971.71 508.56,971.34 C509.70,970.90 509.86,971.48 509.36,974.14 ZM 518.66 51.50 C519.64,56.92 518.63,59.36 517.41,54.51 C517.06,53.12 516.32,52.30 515.74,52.66 C515.05,53.09 514.91,52.47 515.33,50.91 C515.68,49.58 515.98,47.94 515.99,47.25 C515.99,46.56 516.37,46.00 516.83,46.00 C517.29,46.00 518.11,48.47 518.66,51.50 ZM 554.32 248.75 C554.91,251.79 554.21,252.88 552.67,251.33 C552.30,250.97 552.03,248.60 552.06,246.08 C552.13,241.22 553.09,242.35 554.32,248.75 ZM 537.55 832.22 C537.79,832.45 537.35,834.64 536.59,837.07 L 535.20 841.50 L 535.10 837.31 C535.01,833.64 536.30,830.97 537.55,832.22 ZM 191.97 535.96 C192.78,536.47 193.23,537.07 192.97,537.28 C192.43,537.73 184.85,536.19 184.14,535.48 C183.25,534.58 190.50,535.03 191.97,535.96 Z" fill="#e8693a"/>
<path d="M 537.55 832.22 C536.30,830.97 535.01,833.64 535.10,837.31 L 535.20 841.50 L 536.59 837.07 C536.81,836.36 537.01,835.67 537.16,835.05 C536.77,837.03 536.37,838.93 536.01,840.50 C534.00,849.38 529.36,871.86 525.58,891.00 C524.22,897.88 522.38,906.88 521.49,911.00 C519.91,918.30 519.58,919.92 517.11,932.50 C516.47,935.80 514.60,945.25 512.96,953.50 C511.52,960.75 510.13,968.40 509.62,971.82 C509.55,971.18 509.22,971.08 508.56,971.34 C507.59,971.71 506.92,970.93 506.47,968.87 C505.60,964.91 505.16,965.46 505.38,968.21 C504.77,964.61 504.03,960.26 503.48,957.00 C502.69,952.33 500.48,939.95 498.57,929.50 C496.67,919.05 493.94,903.97 492.52,896.00 C491.09,888.03 488.81,875.42 487.45,868.00 C486.09,860.58 482.27,839.42 478.96,821.00 C475.66,802.58 471.62,780.30 470.00,771.50 C468.38,762.70 465.01,744.03 462.50,730.00 C460.00,715.97 457.29,700.90 456.47,696.50 C455.66,692.10 452.28,673.42 448.98,655.00 C441.26,612.00 438.05,594.35 437.16,590.05 C436.47,586.72 436.20,586.54 429.97,585.31 C418.98,583.14 413.68,582.05 409.00,580.99 C406.52,580.43 401.65,579.53 398.17,578.98 C394.69,578.43 391.01,577.54 389.99,576.99 C388.97,576.45 386.82,576.00 385.22,576.00 C383.61,576.00 377.17,574.82 370.90,573.38 C364.63,571.94 357.02,570.37 354.00,569.89 C350.98,569.41 346.48,568.59 344.00,568.06 C341.52,567.54 338.15,566.83 336.50,566.50 C334.85,566.16 331.70,565.50 329.50,565.03 C327.30,564.55 323.02,563.69 320.00,563.11 C312.15,561.60 290.82,557.30 282.00,555.45 C277.88,554.58 272.02,553.47 269.00,552.97 C265.98,552.47 256.98,550.66 249.00,548.94 C241.02,547.22 232.25,545.44 229.50,544.99 C226.75,544.53 221.12,543.39 217.00,542.46 C212.88,541.52 207.25,540.39 204.50,539.94 C201.75,539.49 188.25,536.78 174.50,533.94 C160.75,531.09 147.25,528.38 144.50,527.92 C141.75,527.46 137.70,526.64 135.50,526.11 C133.30,525.57 128.57,524.60 125.00,523.95 C121.43,523.30 111.53,521.29 103.00,519.49 C94.47,517.69 83.45,515.48 78.50,514.57 C73.55,513.66 66.80,512.27 63.50,511.47 C60.20,510.67 56.48,509.87 55.24,509.69 C52.20,509.26 50.15,507.24 52.08,506.59 C54.11,505.90 69.69,502.99 108.50,496.03 C127.20,492.68 148.57,488.83 156.00,487.47 C173.44,484.28 199.43,479.59 275.00,465.97 C342.82,453.75 361.70,450.34 385.50,445.99 C416.94,440.25 435.22,437.00 436.13,437.00 C436.63,437.00 437.43,435.99 437.90,434.75 C438.37,433.51 445.56,398.75 453.86,357.50 C462.17,316.25 478.67,234.35 490.53,175.50 C502.39,116.65 513.01,63.55 514.14,57.50 C514.47,55.71 514.80,54.00 515.11,52.47 C515.16,52.82 515.37,52.89 515.74,52.66 C516.32,52.30 517.06,53.12 517.41,54.51 C518.43,58.55 519.30,57.53 519.00,53.94 C519.57,57.31 520.34,62.01 521.39,68.50 C521.66,70.15 523.06,77.80 524.50,85.50 C527.60,102.06 532.21,127.70 534.49,141.00 C535.38,146.23 536.73,153.43 537.49,157.00 C538.25,160.57 539.17,165.75 539.53,168.50 C539.90,171.25 541.47,180.02 543.03,188.00 C544.59,195.98 546.57,207.00 547.43,212.50 C548.29,218.00 549.45,224.52 550.01,227.00 C550.56,229.48 551.17,232.85 551.37,234.50 C551.54,235.97 552.24,239.86 553.00,243.61 C552.46,242.42 552.10,243.20 552.06,246.08 C552.03,248.60 552.30,250.97 552.67,251.33 C553.71,252.38 554.37,252.22 554.50,251.07 C555.05,253.86 555.56,256.63 555.88,258.50 C557.34,267.02 559.84,281.96 560.39,285.50 C560.65,287.15 561.53,291.65 562.33,295.50 C563.14,299.35 564.34,305.65 565.00,309.50 C565.66,313.35 566.85,319.88 567.65,324.00 C568.45,328.12 569.50,334.42 569.99,338.00 C570.48,341.58 571.55,347.42 572.37,351.00 C573.90,357.69 574.07,358.59 576.50,373.00 C577.28,377.67 579.32,389.15 581.02,398.50 C582.72,407.85 584.91,420.34 585.89,426.25 C586.86,432.16 587.93,437.26 588.25,437.59 C588.79,438.12 626.93,446.15 645.00,449.52 C649.12,450.29 693.90,459.29 744.50,469.53 C795.10,479.76 840.78,488.95 846.00,489.95 C874.16,495.33 971.79,515.19 973.47,515.87 C975.07,516.53 974.42,516.98 969.97,518.31 C964.93,519.81 956.22,521.54 934.00,525.43 C923.94,527.19 900.97,531.36 889.00,533.59 C884.33,534.46 877.80,535.56 874.50,536.04 C868.07,536.96 860.21,538.41 836.50,543.02 C828.25,544.63 816.78,546.64 811.00,547.50 C805.22,548.35 798.03,549.70 795.00,550.49 C791.97,551.28 786.12,552.36 782.00,552.90 C777.88,553.44 770.90,554.59 766.50,555.46 C762.10,556.33 756.25,557.46 753.50,557.96 C750.75,558.47 742.42,560.00 735.00,561.36 C727.58,562.73 713.40,565.26 703.50,566.99 C693.60,568.72 681.22,571.01 676.00,572.07 C670.78,573.14 661.10,574.88 654.50,575.95 C639.45,578.39 633.84,579.39 611.73,583.61 C601.95,585.48 592.73,587.01 591.23,587.02 C589.73,587.02 588.04,587.36 587.47,587.77 C586.38,588.54 581.95,608.40 579.15,625.00 C578.64,628.03 577.77,632.30 577.20,634.50 C576.64,636.70 575.88,640.75 575.51,643.50 C575.14,646.25 573.93,652.06 572.81,656.41 C571.70,660.76 570.38,666.72 569.89,669.66 C568.57,677.55 567.16,684.92 566.00,690.00 C565.44,692.47 564.55,696.97 564.02,700.00 C563.50,703.03 561.92,710.90 560.52,717.50 C559.12,724.10 557.54,731.97 557.01,735.00 C556.47,738.03 555.34,743.65 554.49,747.50 C552.75,755.35 546.48,786.77 544.52,797.50 C543.81,801.35 542.55,807.42 541.71,811.00 C540.87,814.58 539.65,820.88 539.00,825.00 C538.67,827.11 538.16,829.96 537.60,832.83 C537.63,832.50 537.62,832.29 537.55,832.22 ZM 191.97 535.96 C190.50,535.03 183.25,534.58 184.14,535.48 C184.85,536.19 192.43,537.73 192.97,537.28 C193.23,537.07 192.78,536.47 191.97,535.96 ZM 518.06 48.80 C517.62,47.13 517.14,46.00 516.83,46.00 C516.77,46.00 516.70,46.01 516.64,46.03 C517.13,45.54 517.39,45.45 518.06,48.80 ZM 509.11 975.41 C508.78,977.19 508.40,978.08 508.00,978.08 C508.37,977.95 508.74,977.06 509.11,975.41 Z" fill="#d44820"/>
</svg>